<svg id="Layer_1_1_" enable-background="new 0 0 64 64" height="512" viewBox="0 0 64 64" width="512" xmlns="http://www.w3.org/2000/svg"><path d="m58.155 29.537-1.795-1.337c-.059-.066-.125-.125-.199-.175-.298-.199-7.375-4.803-15.065-.017-2.242 1.395-4.031 3.41-5.445 5.563.975-3.025 2.259-6.198 3.926-8.918 6.715-1.832 12.219-6.486 15.141-12.822l.19-.413c.167-.362.103-.789-.163-1.086-.267-.297-.684-.408-1.062-.282-.255.085-6.339 2.179-13.437 10.29-3.577 4.088-5.871 10.093-7.278 15.142l-.038-11.807.109-.033-.111-.372-.07-21.274c-.002-.473-.335-.88-.799-.976-.464-.093-.931.147-1.118.582l-3.75 8.643c-.094.216-.108.458-.041.685l3.779 12.637.027 8.227c-1.323-6.719-3.266-13.897-5.785-16.068-5.02-4.327-9.307-6.43-13.108-6.43-3.94 0-9.23 3.308-9.453 3.449-.359.227-.536.656-.441 1.07.096.414.441.723.864.77l3.819.424c4.084.454 8.065 1.516 11.835 3.156l.942.41 7.127 4.509c1.077 3.418 2.007 7.769 2.736 11.857-1.469-2.64-3.485-5.234-6.213-6.931-7.69-4.784-14.768-.181-15.065.017-.074.049-.141.108-.199.175l-1.795 1.337c-2.676 1.994-4.134 5.171-3.901 8.499l.631 9.051c.034.488.416.88.903.926.032.003.063.004.096.004.293 0 .556-.137.742-.349l.009.008 3.357-3.827c3.159-3.602 5.508-7.945 6.791-12.56l.956-3.438c1.934-.013 4.144.438 6.419 1.854 5.864 3.648 8.18 12.4 8.704 14.735.028.231.057.464.081.673.006.052.03.096.043.144.014.053.024.105.046.154.029.064.07.118.112.174.03.04.054.083.089.118.051.051.113.088.174.127.04.026.075.057.119.077.076.034.159.048.243.063.036.006.068.025.105.027.021.001.041.001.062.001.044 0 .083-.018.126-.023.066-.009.132-.013.195-.036.071-.024.133-.064.196-.104.032-.02.066-.034.096-.058.064-.051.115-.113.165-.178.024-.03.051-.056.071-.09.034-.057.054-.121.077-.185.015-.042.042-.079.051-.124.023-.112 2.397-11.279 9.173-15.496 2.275-1.416 4.485-1.867 6.42-1.854l.955 3.438c1.283 4.615 3.632 8.958 6.791 12.56l3.357 3.828.009-.008c.186.212.449.349.742.349.032 0 .063-.001.096-.004.487-.046.869-.438.903-.926l.632-9.052c.233-3.329-1.226-6.506-3.901-8.5z" fill="#69a43e"/><g fill="#5b8f36"><path d="m33.039 23.642-.107-.358.001.39z"/><path d="m39.577 23.653c-1.667 2.72-2.952 5.893-3.926 8.918.218-.333.449-.66.686-.984.871-2.397 1.935-4.803 3.241-6.933 6.715-1.832 12.219-6.486 15.141-12.822l.19-.413c.136-.295.111-.629-.044-.905l-.146.317c-2.923 6.336-8.427 10.99-15.142 12.822z"/><path d="m3.032 14.583 3.819.424c4.084.454 8.065 1.516 11.835 3.156l.942.41 7.127 4.509c.95 3.014 1.785 6.755 2.469 10.4.089.152.182.303.267.456-.729-4.087-1.659-8.439-2.736-11.857l-7.127-4.509-.942-.41c-3.77-1.641-7.751-2.703-11.835-3.156l-3.819-.424c-.317-.035-.591-.218-.749-.482-.121.213-.173.463-.116.713.097.415.442.723.865.77z"/><path d="m30.929 23.566.024 7.209c.001.006.002.011.003.017l-.027-8.227-3.707-12.394-.032.073c-.094.216-.108.458-.041.685z"/><path d="m62.058 37.036-.632 9.052c-.034.488-.416.879-.903.926-.032.003-.063.004-.096.004-.293 0-.556-.137-.742-.349l-.009.008-3.357-3.828c-3.159-3.602-5.508-7.945-6.791-12.56l-.955-3.438c-1.934-.013-4.145.438-6.42 1.854-6.775 4.216-9.149 15.383-9.173 15.496-.009.045-.036.081-.051.124-.023.064-.042.128-.077.185-.02.033-.047.059-.071.09-.05.065-.101.127-.165.178-.03.024-.064.038-.096.058-.063.039-.125.079-.196.104-.064.023-.129.027-.195.036-.043.006-.082.023-.126.023-.021 0-.041 0-.062-.002-.038-.002-.069-.021-.105-.027-.084-.015-.168-.028-.243-.063-.044-.02-.078-.051-.119-.077-.061-.039-.123-.076-.174-.127-.035-.035-.059-.078-.089-.118-.042-.056-.083-.11-.112-.174-.022-.049-.032-.102-.046-.154-.013-.049-.038-.093-.043-.144-.024-.209-.053-.443-.081-.673-.525-2.335-2.84-11.086-8.704-14.735-2.274-1.416-4.484-1.867-6.419-1.854l-.956 3.438c-1.283 4.615-3.632 8.958-6.791 12.56l-3.357 3.827-.009-.008c-.186.212-.449.349-.742.349-.032 0-.063-.001-.096-.004-.487-.046-.869-.438-.903-.926l-.631-9.051c-.007-.099.002-.196-.002-.295-.026.428-.028.86.002 1.296l.631 9.051c.034.488.416.88.903.926.032.003.063.004.096.004.293 0 .556-.137.742-.349l.009.008 3.357-3.827c3.159-3.602 5.508-7.945 6.791-12.56l.956-3.438c1.934-.013 4.144.438 6.419 1.854 5.864 3.648 8.18 12.4 8.704 14.735.028.231.057.464.081.673.006.052.03.096.043.144.014.053.024.105.046.154.029.064.07.118.112.174.03.04.054.083.089.118.051.051.113.088.174.127.04.026.075.057.119.077.076.034.159.048.243.063.036.006.068.025.105.027.019.002.039.002.06.002.044 0 .083-.018.126-.023.066-.009.132-.013.195-.036.071-.024.133-.064.196-.104.032-.02.066-.034.096-.058.064-.051.115-.113.165-.178.024-.03.051-.056.071-.09.034-.057.054-.121.077-.185.015-.042.042-.079.051-.124.023-.112 2.397-11.279 9.173-15.496 2.275-1.416 4.485-1.867 6.42-1.854l.955 3.438c1.283 4.615 3.632 8.958 6.791 12.56l3.357 3.828.009-.008c.186.212.449.349.742.349.032 0 .063-.001.096-.004.487-.046.869-.438.903-.926l.632-9.052c.03-.435.028-.866.002-1.293-.002.097.006.193 0 .292z"/></g><path d="m32 45h-11c0 6.414 1.511 12.148 3.885 16h14.23c2.374-3.852 3.885-9.586 3.885-16z" fill="#cfcfcf"/><path d="m42.46 45c-4.935 6.191-11.426 10.913-18.772 13.694.372.82.764 1.604 1.197 2.306h14.23c2.374-3.852 3.885-9.586 3.885-16z" fill="#bfbfbf"/></svg>