<svg height="511pt" viewBox="0 0 511.99995 511" width="511pt" xmlns="http://www.w3.org/2000/svg"><path d="m38.953125 446.003906c3.972656-14.652344 17.359375-25.433594 33.269531-25.433594 13.300782 0 24.835938 7.539063 30.585938 18.574219 4.269531-6.203125 11.640625-10.101562 19.878906-9.457031 10.519531.824219 19.09375 9.238281 20.097656 19.742188.289063 2.984374-.03125 5.859374-.835937 8.523437 2.699219-1.042969 5.632812-1.617187 8.699219-1.617187 13.328124 0 24.132812 10.800781 24.132812 24.128906s-10.804688 24.132812-24.132812 24.132812c-13.328126 0-111.175782 0-111.175782 0-16.183594 0-29.304687-13.121094-29.304687-29.304687 0-16.007813 12.84375-29.007813 28.785156-29.289063zm0 0" fill="#49cb5c"/><path d="m419.371094 503.753906h-348.292969v-278.460937l174.148437-127.066407 174.144532 127.066407zm0 0" fill="#f0f0f0"/><path d="m245.226562 98.226562-21.984374 16.039063 152.164062 111.027344v278.460937h43.964844v-278.460937zm0 0" fill="#e8e8e8"/><path d="m316.253906 381.234375v123.011719h-142.058594v-123.011719c0-39.226563 31.800782-71.027344 71.03125-71.027344 39.226563 0 71.027344 31.800781 71.027344 71.027344zm0 0" fill="#09a66d"/><path d="m474.085938 236.183594-216.5625-158.824219c-3.464844-2.542969-7.550782-3.8125-11.640626-3.8125-4.070312 0-8.144531 1.257813-11.597656 3.777344l-217.875 158.828125c-8.789062 6.402344-10.71875 18.71875-4.316406 27.507812 3.855469 5.289063 9.847656 8.09375 15.925781 8.09375 4.023438 0 8.082031-1.226562 11.582031-3.78125l206.246094-150.347656 204.953125 150.316406c3.507813 2.574219 7.585938 3.8125 11.628907 3.8125 6.054687 0 12.035156-2.785156 15.890624-8.046875 6.429688-8.769531 4.535157-21.09375-4.234374-27.523437zm0 0" fill="#09a66d"/><path d="m386.738281 33.5c40.949219-37.75 116.484375-22.425781 116.484375-22.425781s9.144532 76.53125-31.800781 114.28125c-40.949219 37.75-116.484375 22.425781-116.484375 22.425781s-9.144531-76.53125 31.800781-114.28125zm0 0" fill="#49cb5c"/><path d="m503.222656 11.074219s-26.734375-5.421875-57.015625-1.871094c8.078125.863281 13.050781 1.871094 13.050781 1.871094s9.144532 76.53125-31.800781 114.28125c-16.589843 15.292969-38.851562 21.875-59.46875 24.292969 23.417969 2.5 72.984375 3.777343 103.433594-24.292969 40.945313-37.75 31.800781-114.28125 31.800781-114.28125zm0 0" fill="#07b128"/><path d="m461.667969 430.769531c-5.003907-18.464843-21.867188-32.050781-41.917969-32.050781-16.761719 0-31.296875 9.5-38.539062 23.40625-5.382813-7.8125-14.671876-12.730469-25.046876-11.914062-13.257812 1.039062-24.0625 11.636718-25.328124 24.875-.359376 3.761718.042968 7.382812 1.054687 10.742187-3.398437-1.316406-7.09375-2.042969-10.957031-2.042969-16.792969 0-30.40625 13.613282-30.40625 30.40625 0 16.792969 13.613281 30.40625 30.40625 30.40625h140.082031c20.390625 0 36.921875-16.53125 36.921875-36.921875 0-20.171875-16.179688-36.554687-36.269531-36.90625zm0 0" fill="#49cb5c"/><path d="m337.246094 422.125c1.035156-1.988281 2.238281-3.878906 3.558594-5.671875-1.628907 1.34375-3.089844 2.886719-4.375 4.5625.277343.363281.554687.730469.816406 1.109375zm0 0" fill="#07b128"/><path d="m461.667969 430.769531c-5.003907-18.464843-21.867188-32.050781-41.917969-32.050781-8.019531 0-15.515625 2.195312-21.964844 5.984375 9.65625 5.6875 16.921875 15 19.917969 26.066406 20.089844.351563 36.269531 16.734375 36.269531 36.90625 0 20.390625-16.53125 36.921875-36.921875 36.921875h43.964844c20.390625 0 36.921875-16.53125 36.921875-36.921875 0-20.171875-16.179688-36.554687-36.269531-36.90625zm0 0" fill="#07b128"/><path d="m504.09375 512.089844h-496.601562c-4.136719 0-7.492188-3.351563-7.492188-7.492188s3.355469-7.496094 7.492188-7.496094h496.601562c4.140625 0 7.496094 3.355469 7.496094 7.496094s-3.355469 7.492188-7.496094 7.492188zm0 0" fill="#09a66d"/><path d="m375.414062 269.492188c7.097657 0 10.15625-9.378907 4.414063-13.554688l-86.476563-62.898438c-7.78125-5.660156-16.605468 6.453126-8.8125 12.121094l86.476563 62.898438c1.328125.96875 2.871094 1.433594 4.398437 1.433594zm0 0"/><path d="m504.09375 497.101562h-9.847656c6.953125-7.839843 11.183594-18.144531 11.183594-29.425781 0-22.222656-16.695313-40.910156-38.203126-43.96875-6.667968-17.160156-22.203124-29.40625-40.363281-31.972656v-132.058594l19.503907 14.304688c28.300781 20.765625 60.382812-23.140625 32.152343-43.835938l-98.191406-72.011719c18.179687.855469 36.671875-.398437 54.285156-5.171874 9.285157-2.519532 5.429688-17.003907-3.921875-14.46875-21.621094 5.859374-44.417968 5.308593-58.960937 3.976562l71.90625-66.40625h47.25c-4.351563 16.078125-11.839844 32.066406-24.546875 43.78125-7.09375 6.539062 3.082031 17.542969 10.160156 11.019531 31.386719-28.9375 39.003906-80.175781 34.164062-120.679687-.4375-3.644532-3.761718-6.6875-7.453124-6.738282-5.042969-.902343-22.125-3.582031-43.152344-2.804687-33.214844 1.226563-60.324219 10.683594-78.398438 27.347656-28.3125 26.097657-35.738281 68.636719-35.054687 105.40625l-84.648438-62.082031c-9.429687-6.917969-22.636719-6.933594-32.089843-.046875l-152.347657 111.0625c-7.785156 5.675781.925781 17.871094 8.828125 12.113281l152.351563-111.0625c4.214843-3.070312 10.183593-3.066406 14.390625.023438l216.566406 158.828125c12.539062 9.199219-1.632812 29.050781-14.421875 19.667969l-204.957031-150.316407c-2.632813-1.929687-6.210938-1.9375-8.847656-.011719l-206.242188 150.347657c-12.699219 9.269531-27.054688-10.464844-14.363281-19.710938l32.550781-23.726562c7.785156-5.675781-.929688-17.875-8.828125-12.113281l-32.550781 23.730468c-28.226563 20.570313 3.601562 64.660156 32.019531 43.929688l19.570313-14.265625v154.21875c-13.46875 2.84375-24.847657 12.195312-30.152344 25.027343-17.382813 2.910157-30.757813 18.183594-30.757813 36.285157 0 8.160156 2.671875 15.703125 7.179688 21.808593-10.96875-.609374-13.382813 14.988282-2.363281 14.988282h166.367187c4.199219 0 8.199219-4.058594 7.828125-8.335938v-122.519531c0-34.574219 28.964844-63.535156 63.535156-63.535156 34.574219 0 63.535156 28.960937 63.535156 63.535156v57.074219c-14.941406 5.082031-25.726562 19.242187-25.726562 35.882812 0 8.445313 2.777344 16.253906 7.46875 22.5625h-67.679688c-9.691406 0-9.914062 15.339844 0 15.339844h281.273438c4.140625 0 7.496094-3.355469 7.496094-7.496094s-3.355469-7.496094-7.496094-7.496094zm-206.074219-22.910156c0-12.632812 10.277344-22.914062 22.914063-22.914062 2.84375 0 5.621094.519531 8.253906 1.539062 5.636719 2.175782 11.644531-3.320312 9.878906-9.15625-.769531-2.542968-1.027344-5.1875-.769531-7.863281.917969-9.574219 8.847656-17.363281 18.453125-18.117187 7.3125-.574219 14.144531 2.679687 18.292969 8.695312 3.109375 4.519531 10.265625 4.113281 12.816406-.789062 6.222656-11.949219 18.445313-19.375 31.894531-19.375 16.191406 0 30.453125 10.90625 34.683594 26.519531.875 3.21875 3.769531 5.472656 7.101562 5.53125 15.941407.277343 28.90625 13.472656 28.90625 29.414062 0 16.226563-13.203124 29.425781-29.425781 29.425781h-140.089843c-12.632813 0-22.910157-10.277343-22.910157-22.910156zm93.800781-435.183594c.089844-.082031.183594-.15625.273438-.238281v64.492188l-30.503906 28.171875c-.238282-23.347656 3.230468-67.535156 30.230468-92.425782zm102.289063 22.066407h-34.246094l36.703125-33.898438c.101563 8.949219-.335937 21.003907-2.457031 33.898438zm-7.9375-44.699219-79.089844 73.042969v-61.109375c26.226563-13.96875 59.789063-13.664063 79.089844-11.933594zm-468.507813 458.917969c0-11.8125 9.609376-21.589844 21.417969-21.792969 3.335938-.058594 6.230469-2.316406 7.105469-5.535156 2.390625-8.828125 9.058594-15.644532 17.398438-18.472656v67.609374h-24.113282c-12.027344 0-21.808594-9.78125-21.808594-21.808593zm227.5625-172.582031c-43.300781 0-78.523437 35.226562-78.523437 78.523437v115.867187h-88.128906v-248.265624l167.257812-121.925782 166.042969 121.773438v143.164062c-12.53125 1.945313-23.828125 8.46875-31.753906 18.3125-6.867188-5.371094-15.617188-8.121094-24.542969-7.421875-15.851563 1.242188-29.089844 13.476563-31.828125 28.945313v-50.449219c0-43.296875-35.226562-78.523437-78.523438-78.523437zm0 0"/></svg>